<svg xmlns="http://www.w3.org/2000/svg" viewBox="0 0 192.58 269.77"><defs><style>.cls-1{fill:#fff;stroke:#231f20;stroke-miterlimit:10;}.cls-2{fill:#00a896;}</style></defs><g id="Layer_2" data-name="Layer 2"><g id="Layer_1-2" data-name="Layer 1"><circle class="cls-1" cx="93.21" cy="97.28" r="62.39"/><path class="cls-2" d="M96.29,0A96.3,96.3,0,0,0,18,152.39h.21L96,269.3l.31.47,78.06-117.38h.21A96.3,96.3,0,0,0,96.29,0Zm0,150.57A56.51,56.51,0,1,1,152.8,94.06,56.51,56.51,0,0,1,96.29,150.57Z"/><path class="cls-2" d="M81.65,67.51l2.73,5.71A16.1,16.1,0,0,1,89.84,70l-2.51-5.29h0a1.2,1.2,0,0,0-.68-.59,1.25,1.25,0,0,0-.91,0h0l-3.54,1.72a1.21,1.21,0,0,0-.6.68,1.16,1.16,0,0,0,.06.91Zm31.86-2a.92.92,0,0,1,.28.36,16.11,16.11,0,0,1,1,6,31.8,31.8,0,0,1-.88,7.15,19.27,19.27,0,0,1,2.32,9.18v26.65a4.47,4.47,0,0,1-4.47,4.47H81.8a4.42,4.42,0,0,1-3.13-1.3,4.47,4.47,0,0,1-1.31-3.15V88.19A19.3,19.3,0,0,1,79.7,79a27.8,27.8,0,0,1,.07-13,.91.91,0,0,1,.31-.47,3,3,0,0,1,1.31-1.26l3.54-1.72h0l0,0a3,3,0,0,1,4,1.39h0v0l2.61,5.51a19.11,19.11,0,0,1,5.21-.71h0a19.26,19.26,0,0,1,5.23.72L104.63,64h0a3,3,0,0,1,4-1.38h0l3.54,1.72a2.91,2.91,0,0,1,1.31,1.26ZM81.1,76.76A18.25,18.25,0,0,1,83,74.54l-2.11-4.4c-.07.81-.11,1.65-.11,2.49a28,28,0,0,0,.32,4.13Zm31.39,0a28.56,28.56,0,0,0,.46-4.94c0-.7,0-1.38-.1-2l-2.26,4.73a18.58,18.58,0,0,1,1.9,2.24Zm-10-5.27h-.08a.88.88,0,0,1-.26-.1h0a17.67,17.67,0,0,0-5.32-.82h0a17.52,17.52,0,0,0-5.25.8l-.05,0-.27.09h0l-.19,0a17.74,17.74,0,0,0-6.64,4.19,17.51,17.51,0,0,0-5.18,12.43v26.67a2.63,2.63,0,0,0,2.63,2.63h29.94a2.66,2.66,0,0,0,2.65-2.65V88.19a17.7,17.7,0,0,0-11.93-16.66Zm6.76,1.69L112,67.51a1.12,1.12,0,0,0,0-.91,1.16,1.16,0,0,0-.59-.68l-3.54-1.72h0a1.2,1.2,0,0,0-.91,0,1.14,1.14,0,0,0-.67.59h0L103.76,70a16.1,16.1,0,0,1,5.46,3.19ZM83.08,86.86A.9.9,0,0,1,82,87.5a.91.91,0,0,1-.64-1.12A16.63,16.63,0,0,1,88.88,76a15.35,15.35,0,0,1,8.33-2,16.94,16.94,0,0,1,8.17,2.46,15.75,15.75,0,0,1,7.26,10,.9.9,0,0,1-.69,1.08.89.89,0,0,1-1.08-.68A14,14,0,0,0,104.44,78a15.28,15.28,0,0,0-7.29-2.2,13.62,13.62,0,0,0-7.36,1.78,14.81,14.81,0,0,0-6.71,9.32Zm3.83,6.07h19.84a4.54,4.54,0,0,1,4.54,4.54v12.18a4.54,4.54,0,0,1-4.54,4.54H86.91a4.54,4.54,0,0,1-4.54-4.54V97.47a4.56,4.56,0,0,1,4.54-4.54Zm3.78-7.25h12.57a1.08,1.08,0,0,1,1.07,1.08v2.93a1.08,1.08,0,0,1-1.07,1.08H90.69a1.08,1.08,0,0,1-1.07-1.08V86.76a1.08,1.08,0,0,1,1.07-1.08Zm-2.1,15.94v2.78a.86.86,0,0,1-.85.86h0a.86.86,0,0,1-.86-.86v-2.78h-2.7v8a2.76,2.76,0,0,0,.8,1.93,2.71,2.71,0,0,0,1.93.8h19.84a2.73,2.73,0,0,0,2.73-2.73v-8Zm-4.41-1.81h25.3V97.47a2.75,2.75,0,0,0-2.73-2.73H86.91a2.75,2.75,0,0,0-2.73,2.73v2.34Z"/></g></g></svg>