<svg xmlns="http://www.w3.org/2000/svg" viewBox="0 0 1279.95 438.21"><defs><style>.cls-1{fill:#1a1a1a;}</style></defs><g id="Layer_2" data-name="Layer 2"><g id="Layer_1-2" data-name="Layer 1"><path class="cls-1" d="M0,438.21V302.15c30.69-15.39,54.59-29.36,70.45-39.07,39.4-24.11,58.27-33.74,96-53,6.39-3.26,16.25-8.18,30-10,17-2.24,32,1.31,43,4,14.91,3.66,15.74,6,29,9,16,3.6,28.7,3.29,38,3,30.24-.93,54.56-8.75,67-13,37.53-12.81,62.45-25.7,88-38,59.3-28.54,154.18-69.49,191-82a191,191,0,0,0,32-14,195.28,195.28,0,0,0,27-18c6.57-5.08,40.33-31.2,74-43,34-11.91,64.34-7.95,87-5,31.17,4.07,53.59,13.29,72,21,31.71,13.3,51.81,27.44,82,47,41.56,26.92,62.33,40.39,104,69,35,24.07,85.29,57.25,149.5,95.26V438.21"/></g></g></svg>