<svg xmlns="http://www.w3.org/2000/svg" viewBox="0 0 1279.95 524.58"><defs><style>.cls-1{fill:#1a1a1a;}</style></defs><g id="Layer_2" data-name="Layer 2"><g id="Layer_1-2" data-name="Layer 1"><path class="cls-1" d="M1280,222.43V0H0V289.24c64.21,38,114.45,71.19,149.5,95.26,41.67,28.62,62.45,42.08,104,69,30.2,19.56,50.29,33.71,82,47,18.41,7.72,40.83,16.93,72,21,22.66,3,53,6.91,87-5,33.67-11.79,67.43-37.92,74-43a195.28,195.28,0,0,1,27-18,191.32,191.32,0,0,1,32-14c36.82-12.51,131.7-53.46,191-82,25.55-12.29,50.47-25.19,88-38,12.45-4.25,36.76-12.07,67-13,9.3-.29,22-.59,38,3,13.26,3,14.09,5.34,29,9,11,2.7,26,6.25,43,4,13.76-1.82,23.61-6.74,30-10,37.74-19.26,56.6-28.88,96-53C1225.36,251.79,1249.26,237.82,1280,222.43Z"/></g></g></svg>