<svg xmlns="http://www.w3.org/2000/svg" viewBox="0 0 1280 638.58"><defs><style>.cls-1{fill:#1a1a1a;}</style></defs><g id="Layer_2" data-name="Layer 2"><g id="Layer_1-2" data-name="Layer 1"><path class="cls-1" d="M1280,114V336.43c-30.69,15.39-54.59,29.36-70.45,39.07-39.4,24.12-58.26,33.74-96,53-6.39,3.26-16.24,8.18-30,10-17,2.25-32-1.3-43-4-14.91-3.66-15.74-6-29-9-16-3.59-28.7-3.29-38-3-30.24.93-54.55,8.75-67,13-37.53,12.81-62.45,25.71-88,38-59.3,28.54-154.18,69.49-191,82a191.32,191.32,0,0,0-32,14,195.28,195.28,0,0,0-27,18c-6.57,5.08-40.33,31.21-74,43-34,11.91-64.34,8-87,5-31.17-4.07-53.59-13.28-72-21-31.71-13.29-51.8-27.44-82-47-41.55-26.92-62.33-40.38-104-69-35-24.07-85.29-57.24-149.5-95.26V0H1280Z"/></g></g></svg>