<svg xmlns="http://www.w3.org/2000/svg" viewBox="0 0 192.58 269.77"><defs><style>.cls-1{fill:#fff;stroke:#231f20;stroke-miterlimit:10;}.cls-2{fill:#191919;}</style></defs><g id="Layer_2" data-name="Layer 2"><g id="Layer_1-2" data-name="Layer 1"><circle class="cls-1" cx="102.57" cy="94.06" r="62.39"/><path class="cls-2" d="M96.29,0A96.3,96.3,0,0,0,18,152.39h.21L96,269.3l.31.47,78.06-117.38h.21A96.3,96.3,0,0,0,96.29,0Zm0,150.57A56.51,56.51,0,1,1,152.8,94.06,56.51,56.51,0,0,1,96.29,150.57Z"/><path class="cls-2" d="M83.43,120.91h-5.1V113a.54.54,0,0,0-.54-.53H71.37a.55.55,0,0,0-.56.53v7.91H69.9v1.65h54.8v-1.65h-.91V113a.55.55,0,0,0-.56-.53h-6.4a.53.53,0,0,0-.56.5v7.94h-12V109.73a.75.75,0,0,0-.75-.76H91a.75.75,0,0,0-.75.76h0V120.9h-8.5V83.16H66v37.75h4v1.65H65.11a.75.75,0,0,1-.75-.75V82.7a1.06,1.06,0,0,1,.32-.79h0a1.1,1.1,0,0,1,.78-.32H81.78V66.74a1.33,1.33,0,0,1,.38-.81h0a1.3,1.3,0,0,1,1-.39h28.33a1.24,1.24,0,0,1,.93.38l.06.07a1.29,1.29,0,0,1,.34.87V81.58h16.35a1.06,1.06,0,0,1,.78.32h0a1.11,1.11,0,0,1,.33.79v39.14a.75.75,0,0,1-.76.75h-4.79v-1.65h4V83.16H112.78v37.75h-1.66V67.19H83.43ZM73.17,86.45H69.08s-.06,0-.06.1v2.64c0,.06,0,.11.06.11h4.09s.06,0,.06-.11V86.52s0-.1-.06-.1Zm0,18.38H69.08s-.06,0-.06.09v2.65c0,.05,0,.1.06.1h4.09s.06,0,.06-.1v-2.68s0-.09-.06-.09Zm6.89,0H76a.08.08,0,0,0-.07.09v2.65c0,.05,0,.1.07.1h4.08s.06,0,.06-.1v-2.68s0-.09-.06-.09Zm-6.89-6.16H69.08s-.06,0-.06.1v2.65s0,.1.06.1h4.09s.06,0,.06-.1V98.78c0-.06,0-.1-.06-.1Zm0-6.12H69.08s-.06,0-.06.1V95.3s0,.1.06.1h4.09s.06-.05.06-.1V92.65C73.23,92.59,73.2,92.55,73.17,92.55Zm6.89-6.1H76s-.07,0-.07.1v2.64c0,.06,0,.11.07.11h4.08s.06,0,.06-.11V86.52s0-.1-.06-.1Zm0,12.25H76s-.07,0-.07.1v2.65s0,.1.07.1h4.08s.06,0,.06-.1V98.78c0-.06,0-.1-.06-.1Zm0-6.13H76s-.07.05-.07.1V95.3s0,.1.07.1h4.08s.06-.05.06-.1V92.65c0-.06,0-.1-.06-.1Zm41.37-6.12h4.09s.06,0,.06.1v2.64c0,.06,0,.11-.06.11h-4.09s-.06,0-.06-.11V86.52s0-.1.06-.1Zm0,18.38h4.09s.06,0,.06.09v2.65c0,.05,0,.1-.06.1h-4.09s-.06,0-.06-.1v-2.68s0-.09.06-.09Zm-6.89,0h4.08a.08.08,0,0,1,.07.09v2.65c0,.05,0,.1-.07.1h-4.08s-.06,0-.06-.1v-2.68s0-.09.06-.09Zm6.89-6.13h4.09s.06,0,.06.1v2.65s0,.1-.06.1h-4.09s-.06,0-.06-.1V98.78c0-.06,0-.1.06-.1Zm0-6.13h4.09s.06.05.06.1V95.3s0,.1-.06.1h-4.09s-.06-.05-.06-.1V92.65c0-.06,0-.1.06-.1Zm-6.89-6.12h4.08s.07,0,.07.1v2.64c0,.06,0,.11-.07.11h-4.08s-.06,0-.06-.11V86.52s0-.1.06-.1Zm0,12.25h4.08s.07,0,.07.1v2.65s0,.1-.07.1h-4.08s-.06,0-.06-.1V98.78c0-.06,0-.1.06-.1Zm0-6.13h4.08s.07.05.07.1V95.3s0,.1-.07.1h-4.08s-.06-.05-.06-.1V92.65c0-.06,0-.1.06-.1ZM87.41,71.35h4.45a.13.13,0,0,1,.13.12v4.45a.14.14,0,0,1-.13.13H87.41a.12.12,0,0,1-.12-.13V71.47A.12.12,0,0,1,87.41,71.35Zm15.29,0h4.44a.12.12,0,0,1,.13.12v4.45a.13.13,0,0,1-.13.13h-4.45a.13.13,0,0,1-.12-.13V71.47a.12.12,0,0,1,.12-.12Zm-7.65,0H99.5a.13.13,0,0,1,.13.12h0v4.45a.13.13,0,0,1-.13.13H95.05a.14.14,0,0,1-.12-.13V71.47A.13.13,0,0,1,95.05,71.35ZM87.41,81h4.45a.13.13,0,0,1,.13.13h0v4.44a.13.13,0,0,1-.13.13H87.41a.12.12,0,0,1-.12-.12h0V81.09A.13.13,0,0,1,87.41,81Zm15.29,0h4.44a.13.13,0,0,1,.11.11v4.44a.13.13,0,0,1-.13.13h-4.43a.12.12,0,0,1-.12-.13V81.09a.12.12,0,0,1,.12-.13Zm-7.65,0H99.5a.13.13,0,0,1,.13.12h0v4.44a.12.12,0,0,1-.12.13H95.05a.12.12,0,0,1-.12-.13V81.09a.12.12,0,0,1,.12-.13Zm-7.64,19.27h4.45a.12.12,0,0,1,.13.12v4.45a.13.13,0,0,1-.13.13H87.41a.12.12,0,0,1-.12-.12h0v-4.43a.13.13,0,0,1,.12-.13h0Zm15.29,0h4.44a.12.12,0,0,1,.11.14v4.45a.12.12,0,0,1-.13.12h-4.43a.12.12,0,0,1-.12-.12v-4.45a.12.12,0,0,1,.12-.13Zm-7.65,0H99.5a.12.12,0,0,1,.13.12h0v4.45a.12.12,0,0,1-.12.13H95.05a.12.12,0,0,1-.12-.13v-4.43a.12.12,0,0,1,.12-.13Zm-7.64-9.63h4.45a.13.13,0,0,1,.13.12v4.45a.12.12,0,0,1-.13.12H87.41a.12.12,0,0,1-.12-.12V90.74A.12.12,0,0,1,87.41,90.62Zm15.29,0h4.44a.12.12,0,0,1,.11.12v4.45a.12.12,0,0,1-.12.12h-4.44a.12.12,0,0,1-.12-.12h0V90.74a.12.12,0,0,1,.12-.12Zm-7.65,0H99.5a.12.12,0,0,1,.13.12h0v4.45a.12.12,0,0,1-.13.12H95.05a.12.12,0,0,1-.13-.11h0V90.74a.12.12,0,0,1,.12-.12Z"/></g></g></svg>