<svg xmlns="http://www.w3.org/2000/svg" viewBox="0 0 192.58 269.77"><defs><style>.cls-1{fill:#fff;stroke:#231f20;stroke-miterlimit:10;}.cls-2,.cls-3{fill:#fab018;}.cls-3{fill-rule:evenodd;}</style></defs><g id="Layer_2" data-name="Layer 2"><g id="Layer_1-2" data-name="Layer 1"><circle class="cls-1" cx="96.29" cy="97.28" r="62.39"/><path class="cls-2" d="M96.29,0A96.3,96.3,0,0,0,18,152.39h.21L96,269.3l.31.47,78.06-117.38h.21A96.3,96.3,0,0,0,96.29,0Zm0,150.57A56.51,56.51,0,1,1,152.8,94.06,56.51,56.51,0,0,1,96.29,150.57Z"/><path class="cls-3" d="M69.76,116.94V93.56a4.89,4.89,0,0,1-3.37.16,4,4,0,0,1-1.86-1.3,4.1,4.1,0,0,1-.86-2.1A5.29,5.29,0,0,1,65,86.4h0a1,1,0,0,1,.18-.18L95.44,62.56a1.12,1.12,0,0,1,1.44-.06l30.38,23.62h0l.14.12a5,5,0,0,1,1.41,4.61,4.26,4.26,0,0,1-1,1.85,4.19,4.19,0,0,1-1.72,1.17,4.65,4.65,0,0,1-3.61-.24v23.24h-3V92.33c0-.54-20.84-17-23.14-18.81C94,75.38,72.74,91.72,72.74,92.41V117ZM97.3,91.85v9.56h8.57v0a9.62,9.62,0,0,0-8.57-9.53Zm0,11.58v8.3h8.57v-8.3Zm-2,8.29v-8.29H86.7v8.3h8.58Zm0-10.31V91.85a9.64,9.64,0,0,0-8.58,9.53v0ZM82.55,115.94H110v2H82.55v-2ZM96.29,89.78a11.64,11.64,0,0,1,11.6,11.6v12.36H84.68V101.38a11.64,11.64,0,0,1,11.61-11.6Zm17.17-25.63,9.12.37V76.84l-9.12-6V64.15Z"/></g></g></svg>