<svg xmlns="http://www.w3.org/2000/svg" viewBox="0 0 192.58 269.77"><defs><style>.cls-1{fill:#fff;stroke:#231f20;stroke-miterlimit:10;}.cls-2{fill:#2691cf;}</style></defs><g id="Layer_2" data-name="Layer 2"><g id="Layer_1-2" data-name="Layer 1"><circle class="cls-1" cx="93.21" cy="94.06" r="62.39"/><path class="cls-2" d="M96.29,0A96.3,96.3,0,0,0,18,152.39h.21L96,269.3l.31.47,78.06-117.38h.21A96.3,96.3,0,0,0,96.29,0Zm0,150.57A56.51,56.51,0,1,1,152.8,94.06,56.51,56.51,0,0,1,96.29,150.57Z"/><path class="cls-2" d="M65.08,102.85h63.33v-2.58a4.41,4.41,0,0,0-.34-1.73,4.66,4.66,0,0,0-1-1.48,6,6,0,0,0-.87-.71,7.28,7.28,0,0,0-1-.56l-2.89-.6c-1-.19-1.93-.36-2.91-.53l-.12,0-1.41-.24-1.43-.22h0q-5.09-.65-10.14-1c-3.38-.22-6.74-.34-10.08-.34-2,0-4,0-5.94.11s-3.95.19-5.92.34h0c-1.85.17-3.7.39-5.55.64s-3.69.54-5.56.87l-.2.05-.11,0h-.1l-2.68.51L67.44,96a5.23,5.23,0,0,0-.63.41,4.39,4.39,0,0,0-.57.48h0a3.91,3.91,0,0,0-.86,1.27,3.81,3.81,0,0,0-.3,1.49v3.24Zm5.53-37.31h51.52a5,5,0,0,1,1.9.37A5.36,5.36,0,0,1,125.64,67a5,5,0,0,1,1.08,1.62,4.85,4.85,0,0,1,.38,1.9V94.16a7.68,7.68,0,0,1,.81.55,7.83,7.83,0,0,1,.81.7,6.66,6.66,0,0,1,2,4.86v3.37a1.36,1.36,0,0,1,0,.17h0a1.11,1.11,0,0,1,0,.42h0a1.09,1.09,0,0,1,0,.17v15.32a1.18,1.18,0,0,1-.34.83,1.16,1.16,0,0,1-.82.34h-2.41A1.17,1.17,0,0,1,126,120a16.74,16.74,0,0,0-1.38-3.07,5.29,5.29,0,0,0-1.57-1.72,5.43,5.43,0,0,0-2.16-.79,16.9,16.9,0,0,0-3.11-.2l-44.18.05h0a5.85,5.85,0,0,0-2.18.33,3.77,3.77,0,0,0-1.47,1,7.27,7.27,0,0,0-1.17,1.88,24,24,0,0,0-1,2.57h0a1.12,1.12,0,0,1-.43.57,1.09,1.09,0,0,1-.63.22H63.91a1.16,1.16,0,0,1-.82-.34,1.18,1.18,0,0,1-.34-.83V99.62a6.17,6.17,0,0,1,.46-2.39,6.75,6.75,0,0,1,1.92-2.52l.51-.38V70.46A4.85,4.85,0,0,1,66,68.58,4.79,4.79,0,0,1,67.11,67a4.88,4.88,0,0,1,1.61-1.07,4.94,4.94,0,0,1,1.89-.37Zm51.52,2.33H70.61a2.89,2.89,0,0,0-1,.2,2.93,2.93,0,0,0-.86.57,2.64,2.64,0,0,0-.56.83,2.68,2.68,0,0,0-.19,1V93.21l.5-.15c.28-.07.55-.13.82-.17l1.23-.22,1-.17V86.69a6.42,6.42,0,0,1,1.91-4.58,6.65,6.65,0,0,1,2.11-1.42,6.55,6.55,0,0,1,2.47-.49h11a6.57,6.57,0,0,1,2.48.49,6.65,6.65,0,0,1,2.11,1.42,6.54,6.54,0,0,1,1.91,4.58V90.4h1.16v-3.7a6.54,6.54,0,0,1,1.91-4.58,6.42,6.42,0,0,1,4.59-1.91h11a6.49,6.49,0,0,1,6.49,6.49v5.73l1.33.21,1.52.25.76.16a3.59,3.59,0,0,1,.47.12V70.51a2.79,2.79,0,0,0-.2-1,3,3,0,0,0-.58-.86,2.91,2.91,0,0,0-.85-.58,2.79,2.79,0,0,0-1-.2ZM86.68,90.78c1.12-.09,2.23-.16,3.37-.21s2.11-.1,3.16-.13V86.69a4.16,4.16,0,0,0-.31-1.58,4.19,4.19,0,0,0-3.85-2.58h-11a4,4,0,0,0-1.58.32,4.12,4.12,0,0,0-1.35.91,4.34,4.34,0,0,0-.91,1.35,4,4,0,0,0-.32,1.58v5.44c.9-.14,1.81-.26,2.74-.38s2-.24,3-.35l1.21-.14,1.26-.13,2.24-.2,2.33-.15Zm12.37-.37,2,0c.75,0,1.49.06,2.22.09h0c1.21,0,2.4.1,3.55.16s2.28.15,3.35.25c1.56.14,3.08.3,4.51.5s2.51.37,3.65.6V86.69a4.19,4.19,0,0,0-4.16-4.16h-11a4.19,4.19,0,0,0-4.16,4.16v3.72Zm29.36,14.79H65.08v13.36h.8a21.91,21.91,0,0,1,1-2.41,8.84,8.84,0,0,1,1.35-2.06,6.11,6.11,0,0,1,2.27-1.62,8.06,8.06,0,0,1,3.19-.52l44.14,0a19.59,19.59,0,0,1,3.71.27,7.35,7.35,0,0,1,2.84,1.11,7.15,7.15,0,0,1,2,2.09,15.8,15.8,0,0,1,1.57,3.19h.42V105.2Z"/></g></g></svg>