<svg id="Layer_1" data-name="Layer 1" xmlns="http://www.w3.org/2000/svg" viewBox="0 0 1732.95 431.58"><defs><style>.cls-1{fill:#fff;}.cls-2{fill:#1a1a1a;}</style></defs><path class="cls-1" d="M-449.19,188l2.13-2.13h3.26V214h-6.27V193.52h-2.69V188Z" transform="translate(453 0)"/><path class="cls-1" d="M-426.81,189.84v20.21l-3.95,3.95h-6.92l-3.95-3.95V189.84l3.95-4h6.92ZM-434,209a.83.83,0,0,0,.66-.36,1.33,1.33,0,0,0,.29-.85V192.12a1.35,1.35,0,0,0-.29-.86.83.83,0,0,0-.66-.36h-.38a.85.85,0,0,0-.67.36,1.35,1.35,0,0,0-.28.86v15.65a1.32,1.32,0,0,0,.28.85.85.85,0,0,0,.67.36Z" transform="translate(453 0)"/><path class="cls-1" d="M-409.94,189.84v20.21l-3.95,3.95h-6.92l-3.95-3.95V189.84l3.95-4h6.92ZM-417.16,209a.85.85,0,0,0,.67-.36,1.32,1.32,0,0,0,.28-.85V192.12a1.35,1.35,0,0,0-.28-.86.85.85,0,0,0-.67-.36h-.38a.83.83,0,0,0-.66.36,1.35,1.35,0,0,0-.29.86v15.65a1.33,1.33,0,0,0,.29.85.83.83,0,0,0,.66.36Z" transform="translate(453 0)"/><path class="cls-1" d="M-405.91,197.93l-2.32-2.32V188.2l2.32-2.32h4.06l2.28,2.32v7.41l-2.28,2.32ZM-407.66,214-394,185.88h4.33L-403.33,214Zm3.88-19.26a.57.57,0,0,0,.51-.27,1.37,1.37,0,0,0,.17-.72V190a1.28,1.28,0,0,0-.17-.71.59.59,0,0,0-.51-.24H-404a.61.61,0,0,0-.52.24,1.28,1.28,0,0,0-.17.71v3.72a1.37,1.37,0,0,0,.17.72.58.58,0,0,0,.52.27Zm12.42,7.22,2.32,2.31v7.41l-2.32,2.32h-4.07l-2.27-2.32v-7.41l2.27-2.31Zm-2.13,3.19a.57.57,0,0,0-.51.26,1.38,1.38,0,0,0-.17.73v3.72a1.25,1.25,0,0,0,.17.7.56.56,0,0,0,.51.25h.19a.59.59,0,0,0,.52-.25,1.25,1.25,0,0,0,.17-.7v-3.72a1.38,1.38,0,0,0-.17-.73.6.6,0,0,0-.52-.26Z" transform="translate(453 0)"/><path class="cls-1" d="M-381.67,198.84v-2.62l2.51-1.45-2.51-1.44v-2.62l2.51-1.44-2.51-1.45v-1.94h10.91l3.95,4v9.8l-3.95,4h-4.64V214h-6.27V201.73l2.51-1.45Zm6.27-.27h1.33a.86.86,0,0,0,.7-.36,1.33,1.33,0,0,0,.29-.85v-5.24a1.35,1.35,0,0,0-.29-.86.86.86,0,0,0-.7-.36h-1.33Z" transform="translate(453 0)"/><path class="cls-1" d="M-356.4,185.88h6.27v24.17l-4,3.95H-361l-3.95-3.95V185.88h6.27v21.89a1.33,1.33,0,0,0,.29.85.86.86,0,0,0,.7.36h.34a.88.88,0,0,0,.71-.36,1.32,1.32,0,0,0,.28-.85Z" transform="translate(453 0)"/><path class="cls-1" d="M-339.3,210.92v-7.25a1.33,1.33,0,0,0-.28-.84.88.88,0,0,0-.71-.34h-1.33V214h-6.27V185.88H-337l4,4v7.33l-2.93,2.92L-333,203v7.49l.53,3.53h-6.34Zm-2.32-13.45h1.33a.88.88,0,0,0,.71-.36,1.38,1.38,0,0,0,.28-.85v-4.14a1.41,1.41,0,0,0-.28-.86.88.88,0,0,0-.71-.36h-1.33Z" transform="translate(453 0)"/><path class="cls-1" d="M-330.86,208.57V206l2.51-1.45-2.51-1.44v-2.62l2.51-1.45-2.51-1.44V185.88h11.7v5.4h-5.43v5.81h5v5.4h-5v6.11h5.43V214h-11.7v-2.55l2.51-1.44Z" transform="translate(453 0)"/><path class="cls-1" d="M-453,238.66v-1.8l1.72-1-1.72-1v-1.8l1.72-1-1.72-1v-8.66h5.58l1.1,8.32h.26l1.09-8.32h5.51v19.3h-3.84V232h-.26l-1.62,9.75h-2.06l-1.64-9.75h-.26v9.75H-453v-1.09l1.72-1Z" transform="translate(453 0)"/><path class="cls-1" d="M-431.51,241.73l-.28-3.1H-434l-.29,3.1h-4.15l2.43-19.3h6.34l2.42,19.3ZM-433,227.91l-.66,7.25h1.59l-.67-7.25Z" transform="translate(453 0)"/><path class="cls-1" d="M-422.09,222.43l1.75,7.83h.23v-7.83h4.05v19.3h-3.68l-2.14-8.32h-.23v8.32h-4.07v-19.3Z" transform="translate(453 0)"/><path class="cls-1" d="M-410.59,238.63l-.28,3.1H-415l1-8.37,2-1-1.72-.87.23-1.93,2-1-1.75-.86.26-1.93,2-1-1.73-.86.19-1.54h6.33l2.43,19.3h-4.28l-.28-3.1Zm.94-10.72-.65,7.25h1.59l-.68-7.25Z" transform="translate(453 0)"/><path class="cls-1" d="M-396.39,241.73l-.29-3.1h-2.19l-.29,3.1h-4.15l2.43-19.3h6.34l2.42,19.3Zm-1.54-13.82-.66,7.25h1.6l-.68-7.25Z" transform="translate(453 0)"/><path class="cls-1" d="M-386.46,234h-.31v7.74h-4.3v-19.3h4.3V230h.31l1.54-7.57h4.41l-2,9.34,2,10H-385Z" transform="translate(453 0)"/><path class="cls-1" d="M-379.39,238.66v-1.8l1.72-1-1.72-1v-1.8l1.72-1-1.72-1v-8.66h4.31v19.3h-4.31v-1.09l1.72-1Z" transform="translate(453 0)"/><path class="cls-1" d="M-364.1,226.14h-2.71v15.59h-4.28V226.14h-2.71v-3.71h9.7Z" transform="translate(453 0)"/><path class="cls-1" d="M-357.74,241.73l-.28-3.1h-2.19l-.29,3.1h-4.15l2.43-19.3h6.34l2.42,19.3Zm-1.54-13.82-.65,7.25h1.59l-.67-7.25Z" transform="translate(453 0)"/><path class="cls-1" d="M-352.41,231.51v-1.8l1.72-1-1.72-1v-1.8l1.72-1-1.72-1v-1.51h4.09l1.75,7.83h.23v-7.83h4v19.3H-346l-2.14-8.32h-.24v8.32h-4.06v-8.24l1.72-1Z" transform="translate(453 0)"/><path class="cls-1" d="M-330.76,239l-2.72,2.71h-4.61l-2.72-2.71V225.14l2.72-2.71h4.61l2.72,2.71v5h-4.18v-3.47a.93.93,0,0,0-.19-.59.6.6,0,0,0-.46-.25h-.26a.6.6,0,0,0-.46.25.93.93,0,0,0-.19.59v10.75a.9.9,0,0,0,.19.58.57.57,0,0,0,.46.25h.39A.56.56,0,0,0-335,238a.9.9,0,0,0,.19-.58v-2.17h-.78v-3.6h4.83Z" transform="translate(453 0)"/><path class="cls-1" d="M-323.28,241.73l-.28-3.1h-2.2l-.28,3.1h-4.15l2.43-19.3h6.33l2.43,19.3Zm-1.54-13.82-.65,7.25h1.59l-.68-7.25Z" transform="translate(453 0)"/><path class="cls-2" d="M1280,0V129.43c-30.69,15.39-54.59,29.36-70.45,39.07-39.4,24.12-58.26,33.74-96,53-6.39,3.26-16.24,8.18-30,10-17,2.25-32-1.3-43-4-14.91-3.66-15.74-6-29-9-16-3.59-28.7-3.29-38-3-30.24.93-54.55,8.75-67,13-37.53,12.81-62.45,25.71-88,38-59.3,28.54-154.18,69.49-191,82a191.32,191.32,0,0,0-32,14,195.28,195.28,0,0,0-27,18c-6.57,5.08-40.33,31.21-74,43-34,11.91-64.34,8-87,5-31.17-4.07-53.59-13.28-72-21-31.71-13.29-51.8-27.44-82-47-41.55-26.92-62.33-40.38-104-69-35-24.07-85.29-57.24-149.5-95.26V0Z" transform="translate(453 0)"/></svg>